<svg width="524" height="117" viewBox="0 0 524 117" fill="none" xmlns="http://www.w3.org/2000/svg">
<path fill-rule="evenodd" clip-rule="evenodd" d="M101.915 81.0831C104.535 81.0645 107.991 81.436 109.106 83.9431L112.711 91.2231V54.8045L101.934 63.6445V81.1017L101.915 81.0831ZM114.197 91.4274H122.522L114.197 87.1931V91.4274ZM136.198 91.4274H143.148L136.179 86.766V91.4274H136.198ZM136.179 84.7788V80.526L144.448 86.2645V90.5174L136.179 84.7788ZM136.179 78.5574L144.448 84.296V80.0617L136.179 74.3231V78.576V78.5574ZM114.197 84.946V80.7117L124.362 86.4502V90.7031L114.197 84.9645V84.946ZM114.197 78.4831L124.362 84.2217V79.9688L114.197 74.2302V78.4831ZM114.197 72.0017V67.7488L124.362 73.4874V77.7217L114.197 71.9831V72.0017ZM114.197 65.5202L124.362 71.2588V67.006L114.197 61.2674V65.5017V65.5202ZM114.197 59.0388V54.8045L124.362 60.5431V64.796L114.197 59.0574V59.0388ZM136.179 68.0831L144.448 73.8217V78.0745L136.179 72.336V68.0831ZM127.279 91.4274H134.693V68.0831L127.279 74.156V91.4274ZM34.9657 78.056C34.9657 75.0474 36.6752 72.5402 38.9793 71.7974V68.956L30.2646 61.8245V91.3902H38.9793V84.3145C36.6752 83.5717 34.9657 81.046 34.9657 78.056ZM29.0754 91.3902V87.9731L22.3489 91.3902H29.0754ZM11.3114 91.3902V87.6202L5.69977 91.3902H11.3114ZM4.64062 90.666V87.2302L11.3114 82.5874V86.0231L4.64062 90.666ZM4.64062 85.6331L11.3114 80.9902V77.5545L4.64062 82.1974V85.6331ZM20.8809 90.796V87.3788L29.0754 82.736V86.1717L20.8809 90.796ZM20.8809 85.5774L29.0754 80.9345V77.4988L20.8809 82.1417V85.5774ZM20.8809 80.3402V76.9045L29.0754 72.2802V75.716L20.8809 80.3588V80.3402ZM20.8809 75.1217L29.0754 70.4788V67.0431L20.8809 71.686V75.1217ZM20.8809 69.8845V66.4488L29.0754 61.806V65.2417L20.8809 69.8845ZM4.64062 80.6188V77.1831L11.3114 72.5588V75.9945L4.64062 80.6374V80.6188ZM12.5192 91.3902H18.5025V77.4431L12.5192 72.5402V91.3902ZM105.074 84.6674C106.932 85.8188 108.846 89.5702 109.515 91.3902H96.2849L95.523 89.9417C94.501 87.7131 93.5348 86.116 92.2713 84.0174C90.9891 81.8817 89.6698 79.7645 88.332 77.666C87.7374 76.7188 87.0313 75.7345 86.4552 74.7874C86.6225 74.6945 87.1799 74.4717 87.3843 74.3974C87.8303 74.2117 88.2576 74.0074 88.685 73.7845C90.952 72.5402 93.1074 70.6645 94.2781 68.3617C94.6125 67.6931 94.8169 67.0802 95.0213 66.3745C92.6986 70.2002 89.3911 72.076 85.7306 74.5831C84.2254 75.6231 82.07 77.2017 80.5277 78.056C79.7287 76.9602 79.3757 76.5145 78.2793 75.6602C78.1493 79.2074 78.3908 81.0274 79.0784 84.5002C79.5986 84.4631 81.4382 84.296 81.7541 84.686C82.8876 86.116 84.244 88.0845 84.8572 89.8302L85.0988 91.3902H63.3955L62.2063 89.9417H62.2435C61.2029 87.676 59.9022 85.5402 58.6386 83.386C58.3785 82.9402 58.0626 82.4388 57.8211 81.9931C58.9359 79.5974 60.1437 75.8274 59.4562 73.246C60.664 73.2831 62.4293 73.506 63.507 73.0974C62.6337 72.7074 61.6117 72.4474 60.7198 72.1317C60.1066 71.9274 59.289 71.9088 58.6572 71.9088C56.8362 75.4745 53.1942 78.6131 49.7567 80.6188C49.5708 80.7302 49.1063 80.9902 49.0134 81.176C48.6046 82.0674 47.9728 84.4445 47.7498 85.2245L47.8056 85.2617C48.5674 85.6888 49.2735 85.5217 49.7567 85.726C50.8158 86.1531 51.9493 88.9945 52.2837 90.016L52.0979 91.4088H40.6517C40.9304 90.2945 41.1534 88.9574 41.395 87.806C41.9152 85.336 42.4169 82.866 42.8815 80.396C43.0673 79.4302 43.2531 78.4831 43.4575 77.5174C44.4423 77.2388 45.0555 76.9231 45.5944 76.0131C46.0775 75.1774 46.1332 74.5645 46.0403 73.636C45.1484 74.286 44.2193 74.8988 43.2903 75.5117C42.3054 76.1988 41.0976 76.9231 40.6145 78.0745C40.2801 78.9102 40.4659 79.9688 40.6517 80.8231C40.7446 81.2874 40.9118 81.8445 41.0976 82.2717C39.6297 81.9188 38.4219 81.3245 37.753 79.8945C36.6381 77.5174 39.0537 75.0845 40.8561 73.8217C42.7328 72.5031 44.9998 71.3145 46.3562 69.3831C47.1367 68.2502 47.2853 66.3374 47.564 64.9631C47.7313 64.146 47.9728 63.3474 48.2701 62.5488C49.2178 60.0417 50.407 58.7231 52.8969 57.6274C54.402 56.9588 55.9443 56.3645 57.4494 55.7145L64.2874 52.6874C64.1574 51.536 64.2131 50.3474 64.4732 49.2145C64.6776 48.416 64.9378 47.6174 65.3837 46.9117C64.2688 47.4131 62.5779 49.6602 62.5779 49.6602C62.9496 47.0231 64.306 44.2931 65.4023 42.8817C66.7216 41.1917 67.0932 40.616 68.6541 39.1302C68.3382 39.3345 67.0375 39.6688 66.703 39.8731C65.551 40.5602 64.3989 41.916 63.6557 43.0117C63.6742 42.4731 63.6742 41.9345 63.7671 41.396C64.2503 38.536 65.8297 35.9174 68.0223 34.0602C68.4497 33.6888 68.9142 33.3545 69.3974 33.076C70.1778 32.5745 72.166 31.646 73.0765 31.4231C73.3924 31.3302 73.7269 31.2931 74.0427 31.2745C73.0765 30.996 72.0731 30.7917 71.0511 30.8474C70.6795 30.866 70.2893 30.8845 69.9362 30.996C70.4751 30.216 71.2184 29.5845 72.0545 29.1202C73.3924 28.3774 74.9532 28.1731 76.4584 28.2288C77.3503 28.3031 78.2422 28.4331 79.0969 28.6931C80.1747 28.9902 81.1781 29.4545 82.2001 29.9002C82.4602 29.9931 82.7018 30.1602 82.9619 30.2345C82.5159 29.5474 81.9028 28.9902 81.2338 28.5445C80.6578 28.136 80.026 27.8388 79.3757 27.5974C78.0006 27.1145 76.5141 26.9474 75.0647 27.1702C76.0496 26.3717 77.2574 25.8888 78.5023 25.7031C79.7659 25.4988 81.0666 25.6474 82.2558 26.056C84.1697 26.7431 85.7863 28.1731 86.7525 29.956C87.0127 30.4388 87.2357 30.9588 87.3471 31.4788C87.3471 31.5345 87.3843 31.5717 87.4215 31.6088C87.5515 31.2745 87.7188 30.9217 87.7374 30.5502C87.8117 29.7888 87.6073 29.0274 87.2171 28.3774C86.5853 27.3002 85.6005 26.4645 84.5228 25.8331C84.1511 25.5917 83.7423 25.4431 83.3521 25.276C84.7086 25.1274 86.065 25.3874 87.3286 25.8888C88.2205 26.2417 89.0381 26.7617 89.7256 27.4302C90.9891 28.656 91.8067 30.4202 91.6395 32.2031C91.9182 31.5717 92.0854 30.8845 92.0111 30.216C91.9554 29.7331 91.8439 29.2317 91.5652 28.8045C92.4757 29.2688 93.2189 30.0488 93.6649 30.9774C94.0179 31.6831 94.148 32.4817 94.1666 33.2617C94.1852 33.6331 94.1666 34.0231 94.3524 34.3574C94.5196 34.636 94.7798 34.8217 95.0028 35.0445C95.4487 35.4902 95.6903 36.0845 95.6903 36.6974C95.6903 36.9017 95.6531 37.1245 95.6531 37.3288C95.7646 37.4774 95.9504 37.5702 96.0991 37.6817C96.991 38.2945 97.9015 38.9074 98.7191 39.6131C99.035 39.8731 99.2951 40.2445 99.3323 40.6717C99.3694 41.0245 99.3137 41.3217 99.2022 41.6374C99.2022 41.656 99.1836 41.6931 99.165 41.7302C99.0535 42.0088 98.7191 42.3245 98.8677 42.6031C100.354 45.5002 98.0873 51.2202 97.8086 51.8331C97.4741 52.5945 96.8981 53.356 96.3778 53.8202C96.9538 54.5631 97.6599 55.7888 97.9944 56.4574C99.3694 59.2245 99.0164 62.3445 97.9944 65.1674C97.8457 65.7988 96.8609 67.6374 96.9724 68.2131C97.6785 71.9645 98.5518 76.106 99.8154 79.6717C100.373 81.2874 101.042 82.8474 101.822 84.3702C102.454 84.3702 104.684 84.4074 105.093 84.6488H105.111L105.074 84.6674ZM98.8677 41.9902C98.8677 41.9902 98.8491 42.046 98.8305 42.0831C98.8305 42.046 98.8677 41.9902 98.8677 41.9902ZM97.9015 43.5317C97.8271 43.1788 97.2883 43.5688 97.0281 43.8845C96.7123 44.2188 96.5264 44.8874 96.5264 44.9431C96.2106 46.2802 96.9724 47.0045 97.1582 46.6145C97.4369 46.5031 98.3103 45.3331 97.9015 43.5317ZM75.1019 31.4974C74.6374 32.036 74.3772 32.7602 74.433 33.466C74.4701 34.4317 74.9532 35.3231 75.5664 36.0474C75.8823 36.4745 76.3283 36.7717 76.7557 37.0874C76.1982 36.2145 75.9009 35.1374 76.1053 34.0974C76.2168 33.5774 76.5141 33.0388 77.0158 32.816C76.607 32.7974 76.1796 32.946 75.8823 33.2245C76.0496 32.9088 76.254 32.5745 76.5884 32.426C76.9786 32.2031 77.4432 32.1474 77.8891 32.2217C78.428 32.3145 78.8554 32.6674 79.2827 32.9645C79.7287 33.2617 80.2304 33.4102 80.7321 33.5217C81.4382 33.6888 82.1815 33.7074 82.869 33.9117C82.5159 33.9674 82.2001 34.116 81.9028 34.2831C81.048 34.6917 80.3605 35.3602 79.8402 36.1588C80.1561 36.0474 80.5091 36.066 80.8622 36.0845C81.1595 36.1031 81.4568 36.1217 81.7355 36.196C81.271 36.3445 80.8993 36.6417 80.5277 36.9388C79.4128 37.8488 78.5767 39.0745 78.2422 40.486C77.9263 41.7488 78.0378 43.1045 78.4837 44.3117C78.2793 43.0302 78.5209 41.6931 79.0969 40.5417C79.5615 39.6688 80.2118 38.8702 81.0294 38.276C81.8284 37.7002 82.8132 37.4217 83.7981 37.4402C83.6494 37.5517 83.4822 37.626 83.3335 37.7188C82.5717 38.2388 81.9957 39.0002 81.7169 39.8917C81.624 40.1888 81.6054 40.486 81.5311 40.7645C81.9771 40.2445 82.6088 39.8917 83.2778 39.7245C83.0734 40.3745 83.0734 41.1174 83.3521 41.7488C83.5751 42.3245 84.0025 42.8445 84.5785 43.086C85.2103 43.346 85.935 43.3088 86.5481 43.0674C87.4215 42.7331 88.0532 42.0088 88.8894 41.6188C89.2796 41.4331 89.6884 41.3031 90.1158 41.2288C89.0938 41.786 88.332 42.8445 88.2576 44.0331C88.9266 43.5874 89.7999 43.5317 90.5803 43.5502C90.2645 43.6802 89.9114 43.8102 89.6141 43.9774C89.131 44.1817 88.7036 44.5345 88.3505 44.9245C88.3505 44.9617 88.3877 45.0545 88.4063 45.1102C89.4654 44.7574 90.5989 44.5902 91.7138 44.5717C91.4165 44.6831 91.1749 44.8688 90.8962 44.9988C90.283 45.296 89.6513 45.4817 89.0195 45.6674C89.354 46.0574 89.7813 46.3731 90.2645 46.5588C91.0449 46.856 91.9182 46.8374 92.7358 46.6331C93.6835 46.3917 94.5568 45.946 95.2815 45.3145C95.5788 45.036 95.8761 44.7017 95.9132 44.2745C95.9504 43.6245 95.6717 42.9374 95.1142 42.6031C94.6311 42.2688 93.9808 42.2317 93.6091 41.7488C93.3118 41.396 93.2932 40.8945 93.3676 40.4674C93.6835 40.7831 93.9808 41.2288 94.4825 41.2474C94.724 40.9317 95.0585 40.6531 95.4487 40.5417C96.0619 40.356 96.6751 40.6902 97.2883 40.616C97.4555 40.616 97.5856 40.5231 97.7157 40.4488C97.5484 40.1888 97.2883 39.966 97.0467 39.7802C96.2106 39.1117 95.3186 38.536 94.4453 37.9045C94.0179 37.5702 93.572 37.2545 93.2747 36.7902C92.9774 36.3817 92.8287 35.8988 92.7172 35.3974C93.0889 35.6945 93.572 35.9174 93.7392 36.3817C93.7949 36.2145 93.8507 36.0474 93.7949 35.8802C93.6835 35.6388 93.4605 35.4902 93.2561 35.3231C92.6057 34.8031 91.9182 34.376 91.1749 34.0045C91.1006 33.9674 91.0635 33.9117 91.0077 33.856C91.0263 34.3017 90.9148 34.7474 90.7476 35.156C90.4317 34.4131 89.8185 33.8374 89.131 33.4474C88.1647 32.8531 87.0498 32.556 85.9535 32.3145C85.5076 32.2031 85.043 32.1474 84.5971 31.9988C84.9873 32.3331 85.3218 32.7602 85.5262 33.2245C84.7457 32.9274 83.9096 32.7788 83.0734 32.7417C82.1815 32.7045 81.271 32.7045 80.472 32.2774C79.9517 32.0174 79.5615 31.5717 79.0784 31.256C78.4466 30.7917 77.6476 30.5688 76.8671 30.6431C76.1982 30.6988 75.5479 31.0145 75.1391 31.5345L75.1019 31.4974ZM90.2087 53.226C91.5466 56.5502 91.6952 59.8374 90.3388 62.7717C95.4673 57.3117 90.2087 53.226 90.2087 53.226ZM89.5212 49.8088C91.0077 50.4588 92.4942 51.0902 93.9993 51.7402C94.4453 51.926 95.3372 52.5574 95.8203 52.2602C96.1734 52.056 96.4707 50.756 96.2291 50.3474C95.523 49.0845 90.8033 49.1031 89.5212 49.7902V49.8088ZM75.5293 54.0617C75.009 51.1831 74.8603 48.2674 76.9415 45.6674C73.2066 48.1188 73.0393 50.9417 74.8418 54.266C75.1948 54.9717 75.6036 55.6031 76.0124 56.2717C75.9009 55.5845 75.6779 54.786 75.5479 54.0617H75.5293ZM69.5088 43.4574C69.3416 44.4602 69.4531 45.4817 69.8247 46.4288C69.8247 45.5374 69.992 44.646 70.2707 43.7917C70.9396 41.7117 72.2218 39.8545 73.8755 38.406C74.0613 38.2574 74.2472 38.1088 74.433 37.9417C73.2623 38.406 72.1474 39.0745 71.2927 40.0217C70.4008 40.9874 69.7318 42.1574 69.5088 43.4574ZM44.0521 89.626C44.0521 89.626 46.6349 89.756 46.7279 89.7002C46.7279 89.3102 45.1298 87.676 44.8511 87.416C44.6839 88.1031 44.2008 88.9388 44.0521 89.6445V89.626ZM49.4779 89.7002C49.1992 88.9388 47.5083 87.7688 46.8579 87.2488C47.0066 88.0102 47.8613 88.9388 48.0471 89.7002C48.3259 89.7002 49.1992 89.6817 49.4779 89.7002ZM64.3989 61.936C64.4732 60.9145 64.3246 59.8188 64.3432 58.7974C64.3432 58.0731 64.6776 56.866 64.6033 56.2531C64.5662 56.2531 64.529 56.2345 64.5104 56.2345C61.4073 57.4045 58.1927 58.3702 54.9595 59.1502C54.7737 59.206 54.402 59.3545 54.2348 59.4474C50.2026 61.5088 49.4779 66.1145 48.8462 70.0331L48.1029 74.5831C47.9728 75.3817 47.8428 76.366 47.6755 77.146C48.8276 76.3102 49.6637 75.6974 50.7043 74.7131C53.473 72.0388 54.6622 69.9774 56.2045 66.486C56.9477 64.8702 57.5795 63.2174 58.1184 61.5274C58.267 62.4002 58.3413 63.3474 58.4528 64.2388C58.5457 65.0188 58.6572 66.0031 58.6572 66.7831C60.3481 66.2631 61.6674 65.3345 62.9496 64.1645C63.5256 63.626 64.3432 62.7902 64.3989 61.9545V61.936ZM67.0932 86.4317C67.7993 86.506 68.7656 86.5802 69.4903 86.5988C68.9886 84.816 68.4311 83.1074 67.7993 81.3617C67.7064 81.1017 67.4463 80.2102 67.3348 80.0431H67.2976C66.5544 80.5074 65.2723 81.5845 64.6776 82.2717C64.9192 83.0517 66.0898 85.7074 66.7588 86.3017C66.7959 86.3202 67.0375 86.4131 67.0932 86.4317ZM78.5023 74.4531C81.1409 72.726 81.5125 69.4574 81.3453 67.4331C80.8436 60.7288 72.6677 59.5217 70.7724 58.296C70.3264 58.0174 69.2301 56.9774 68.8213 56.6431C68.7098 56.5502 68.3568 56.2345 68.2825 56.1788C66.8145 58.9831 67.2047 60.6917 68.2639 63.5888C68.9514 65.5017 69.7318 68.1574 69.4531 70.1817C67.9852 68.8817 67.6507 68.2688 66.6659 66.6902C66.0713 67.4145 65.7554 68.2502 65.9226 69.1602C66.2757 71.0731 67.2791 73.4688 67.9852 75.3074L70.9025 82.9774C71.7386 85.1874 72.5934 87.416 73.188 89.7002H77.6476C77.5361 89.0317 77.406 88.3817 77.2574 87.7317C77.183 87.3602 77.0344 86.8402 77.0158 86.4874C77.1087 86.3945 77.0715 86.4317 77.183 86.376C77.6476 86.7845 78.8925 88.976 79.1527 89.5888C79.8774 89.5888 80.602 89.5517 81.3267 89.5517C81.1409 88.846 80.4906 86.6731 79.9331 86.4131C78.9111 85.9488 76.4398 85.8188 75.3249 85.8002C74.8046 83.0517 74.2657 80.3217 73.6711 77.5731C73.3738 76.1802 73.0765 74.7874 72.835 73.376C72.6491 72.336 73.0393 71.6302 73.5225 70.7388C74.6188 68.7145 75.1205 67.5074 76.9601 68.306C79.3199 69.3645 78.428 74.1002 78.4837 74.3974L78.5023 74.4531ZM84.5971 65.3345C84.7086 64.406 84.7457 63.4774 84.5971 62.5488C84.3555 60.766 83.668 59.0945 82.8132 57.5531C82.1629 56.346 81.5125 55.1202 81.1409 53.7831C80.7693 52.4645 80.6392 51.0902 80.7321 49.716C80.8064 48.7874 80.9551 47.8774 81.271 46.986C80.8622 47.506 80.5091 48.0631 80.1747 48.6388C79.6172 49.6602 79.1527 50.7374 78.8368 51.8702C78.5023 53.0588 78.3537 54.3031 78.4837 55.5288C78.5767 56.1417 78.7253 56.7545 78.9483 57.3302C79.3199 58.2402 79.8774 59.076 80.4906 59.8374C81.2152 60.7474 82.0142 61.6017 82.6646 62.5674C83.1477 63.2917 83.5751 64.0531 83.8538 64.8702C84.0954 65.5574 84.2069 66.3002 84.1325 67.0431C84.3369 66.486 84.5042 65.9102 84.5971 65.316V65.3345ZM84.9873 67.916C85.7677 67.4888 86.4924 66.8388 87.0684 66.0217C88.5735 63.7745 89.131 60.6731 88.685 57.9988C88.462 56.4945 87.9603 55.1202 87.3286 53.876C86.7711 52.6874 86.0836 51.6288 85.4332 50.5331C85.9907 52.4274 86.641 54.266 87.087 56.2345C87.3657 57.4788 87.5515 58.7974 87.5515 60.1345C87.5887 62.1774 87.1799 64.3131 86.288 66.1331C85.9535 66.8388 85.5076 67.4517 84.9873 67.916ZM86.1765 71.3517C98.7562 64.2388 95.17 55.9002 95.17 55.9002C95.1142 64.3502 86.1765 71.3517 86.1765 71.3517ZM98.5332 89.6817C98.2359 89.1617 97.7714 87.9174 97.567 87.3231C96.6751 84.6117 95.7088 81.3617 95.2815 78.5388C95.5416 78.7802 98.3289 85.8188 98.7191 86.8031C99.4809 86.766 103.197 86.5988 103.606 86.8031C104.033 87.0074 104.554 89.0502 104.684 89.5702C104.591 89.6631 99.165 89.6631 98.5147 89.6631L98.5332 89.6817ZM88.7779 38.016C89.6884 38.2574 90.5432 38.6845 91.2679 39.2974C90.8033 38.4245 89.9486 37.4588 89.3725 36.6231C89.2053 36.586 88.9266 36.5302 88.7965 36.5117C87.9418 36.3817 86.2323 36.0474 85.4518 36.0288C85.8978 36.2331 86.1765 36.4745 86.5481 36.7531C87.2914 37.3474 87.8488 37.756 88.7779 38.0345V38.016Z" fill="white"/>
<path fill-rule="evenodd" clip-rule="evenodd" d="M307.526 91.4076V75.0833H302.249V80.9705H296.581V75.0833H291.304V91.4076H296.581V85.1862H302.249V91.4076H307.526ZM282.422 91.4076V79.5776H287.402V75.0833H272.128V79.5776H277.126V91.4076H282.422ZM268.207 91.4076V82.1962H260.607V85.4276H263.079V86.6719C262.447 86.9505 261.573 87.1733 260.533 87.1733C258.322 87.1733 257.058 85.9476 257.058 83.3662C257.058 80.7848 258.47 79.5219 262.168 79.5219C264.918 79.5219 267.129 80.079 268.226 80.4505V75.8262C267.204 75.2876 264.937 74.7305 261.406 74.7305C254.494 74.7305 251.855 77.6276 251.855 83.2548C251.855 88.8819 254.643 91.7419 258.898 91.7419C260.942 91.7419 262.521 91.1105 263.562 90.2562V91.389H268.226L268.207 91.4076ZM243.159 91.4076H247.935V75.0833H242.695L242.918 83.849L236.581 75.0833H231.806V91.4076H237.046L236.823 82.6233L243.159 91.4076ZM213.261 75.0833V91.4076H227.885V87.3219H218.539V85.1305H226.566V81.2305H218.539V79.3548H227.662V75.0833H213.261ZM198.378 82.4562V79.3362H202.075C203.042 79.3362 203.655 79.8748 203.655 80.859C203.655 81.8433 203.06 82.4562 202.112 82.4562H198.396H198.378ZM209.359 91.4076L206.553 85.799C208.059 85.1305 208.969 83.6262 208.969 80.729C208.969 76.6433 206.776 75.0833 203.302 75.0833H193.1V91.4076H198.378V86.4676H201.276L203.097 91.4076H209.359ZM184.218 91.4076V79.5776H189.198V75.0833H173.924V79.5776H178.923V91.4076H184.218ZM162.236 85.1676C164.318 85.2976 164.782 85.4647 164.782 86.1147C164.782 86.9133 163.983 87.1919 162.051 87.1919C159.04 87.1919 156.736 86.5233 155.677 86.0033V90.4976C156.773 91.1662 159.505 91.7419 162.534 91.7419C167.83 91.7419 170.004 90.0705 170.004 86.319C170.004 82.5676 168.498 81.7876 163.147 81.4162C161.159 81.2862 160.583 81.1562 160.583 80.4133C160.583 79.559 161.512 79.3176 163.296 79.3176C166.139 79.3176 168.591 79.9676 169.632 80.4505V75.9376C168.517 75.2505 165.841 74.7305 162.85 74.7305C157.647 74.7305 155.398 76.3833 155.398 80.1348C155.398 83.5333 156.606 84.7962 162.218 85.1676H162.236ZM490.647 85.1676C492.728 85.2976 493.193 85.4647 493.193 86.1147C493.193 86.9133 492.394 87.1919 490.461 87.1919C487.451 87.1919 485.147 86.5233 484.088 86.0033V90.4976C485.184 91.1662 487.915 91.7419 490.944 91.7419C496.24 91.7419 498.414 90.0705 498.414 86.319C498.414 82.5676 496.909 81.7876 491.557 81.4162C489.569 81.2862 488.993 81.1562 488.993 80.4133C488.993 79.559 489.922 79.3176 491.706 79.3176C494.549 79.3176 497.002 79.9676 498.042 80.4505V75.9376C496.928 75.2505 494.252 74.7305 491.26 74.7305C486.057 74.7305 483.809 76.3833 483.809 80.1348C483.809 83.5333 485.017 84.7962 490.628 85.1676H490.647ZM469.408 82.4562V79.3362H473.106C474.072 79.3362 474.685 79.8748 474.685 80.859C474.685 81.8433 474.091 82.4562 473.143 82.4562H469.427H469.408ZM480.371 91.4076L477.566 85.799C479.052 85.1305 479.981 83.6262 479.981 80.729C479.981 76.6433 477.789 75.0833 474.314 75.0833H464.113V91.4076H469.39V86.4676H472.288L474.109 91.4076H480.371ZM451.756 79.2619L453.558 85.2976H449.972L451.774 79.2619H451.756ZM455.249 91.4076H461.009L455.621 75.0833H448.095L442.707 91.4076H448.281L449.006 88.9005H454.524L455.268 91.4076H455.249ZM431.818 91.7419C437.559 91.7419 440.477 88.4362 440.477 83.0319C440.477 77.6276 437.578 74.749 431.818 74.749C426.057 74.749 423.177 77.5162 423.177 83.0319C423.177 88.5476 426.076 91.7419 431.818 91.7419ZM431.818 79.039C433.992 79.039 435.051 80.1905 435.051 83.0319C435.051 86.1705 434.01 87.3219 431.818 87.3219C429.625 87.3219 428.585 86.1519 428.585 83.0319C428.585 80.1905 429.607 79.039 431.818 79.039ZM408.609 82.4562V79.3362H412.307C413.273 79.3362 413.887 79.8748 413.887 80.859C413.887 81.8433 413.31 82.4562 412.344 82.4562H408.628H408.609ZM419.591 91.4076L416.785 85.799C418.29 85.1305 419.201 83.6262 419.201 80.729C419.201 76.6433 417.008 75.0833 413.534 75.0833H403.332V91.4076H408.609V86.4676H411.508L413.329 91.4076H419.591ZM387.036 91.4076V79.5776H392.016V75.0833H376.742V79.5776H381.74V91.4076H387.036ZM366.801 79.2619L368.603 85.2976H365.017L366.819 79.2619H366.801ZM370.294 91.4076H376.054L370.666 75.0833H363.14L357.752 91.4076H363.326L364.051 88.9005H369.57L370.294 91.4076ZM354.686 91.4076V75.0833H349.409V80.9705H343.741V75.0833H338.464V91.4076H343.741V85.1862H349.409V91.4076H354.686ZM329.08 91.4076V79.5776H334.06V75.0833H318.786V79.5776H323.785V91.4076H329.08Z" fill="white"/>
<path fill-rule="evenodd" clip-rule="evenodd" d="M488.849 66.6521H498.065V40.4664H508.007V32.8893H478.833V40.4664H488.849V66.6521ZM453.433 48.6564L467.815 66.6336H475.396V32.8893H466.365V50.8664L451.983 32.8893H444.402V66.6336H453.433V48.6564ZM441.113 59.2607H424.074V53.095H438.549V45.9636H424.074V40.2807H440.5V32.9078H414.95V66.6521H441.113V59.2793V59.2607ZM381.856 49.2321L390.199 63.3093H394.287L402.668 48.7493L402.761 66.6336H411.234L411.141 32.8893H403.56L392.392 52.3707L380.946 32.8893H373.365V66.6336H381.893V49.2321H381.856ZM370.522 59.2607H353.482V53.095H367.957V45.9636H353.482V40.2807H369.908V32.9078H344.359V66.6521H370.522V59.2793V59.2607ZM327.988 67.3207C333.99 67.3207 338.84 65.055 341.999 60.9507L336.127 55.4536C334.083 58.0164 331.575 59.4093 328.453 59.4093C323.101 59.4093 319.367 55.5464 319.367 49.7707C319.367 43.9764 323.083 40.1321 328.434 40.1321C331.556 40.1321 334.065 41.525 336.109 44.0878L341.98 38.5907C338.821 34.4864 333.972 32.2207 327.97 32.2207C317.638 32.2207 310.057 39.5007 310.057 49.7707C310.057 60.0407 317.657 67.3207 327.988 67.3207ZM281.051 42.2307L285.381 53.0393H276.703L281.033 42.2307H281.051ZM252.937 45.5736L260.519 32.8707H270.609L257.732 54.3764V66.6336H248.143V54.3764L235.266 32.8707H245.356L252.937 45.5736ZM223.653 66.6521H233.204V32.8893H223.653V66.6521ZM204.254 48.8978H198.939V40.4107H204.254C208.212 40.4107 210.181 41.9893 210.181 44.6821C210.181 47.375 208.193 48.8978 204.254 48.8978ZM210.293 66.6521H220.531L212.597 55.0821C217.187 53.2436 219.844 49.585 219.844 44.6821C219.844 37.4021 214.046 32.8893 204.83 32.8893H189.389V66.6521H198.939V56.4378H203.288L210.274 66.6521H210.293ZM170.584 48.8978H165.27V40.4107H170.584C174.542 40.4107 176.53 41.9893 176.53 44.6821C176.53 47.375 174.542 48.8978 170.584 48.8978ZM171.16 32.8707H155.719V66.6336H165.27V56.4193H171.16C180.376 56.4193 186.174 51.9064 186.174 44.6636C186.174 37.4207 180.376 32.8707 171.16 32.8707ZM288.41 60.5607L290.844 66.6336H300.785L285.827 32.8707H276.406L261.485 66.6336H271.24L273.674 60.5607H288.391H288.41Z" fill="white"/>
<path fill-rule="evenodd" clip-rule="evenodd" d="M514.604 37.8101V32.8887H516.091L516.983 36.2501L517.875 32.8887H519.361V37.8101H518.432V33.9472L517.447 37.8101H516.5L515.533 33.9472V37.8101H514.604ZM511.538 37.8101V33.7244H510.07V32.8887H513.972V33.7244H512.523V37.8101H511.538Z" fill="white"/>
</svg>
