<svg width="70" height="44" viewBox="0 0 70 44" fill="none" xmlns="http://www.w3.org/2000/svg">
<rect x="7.5" y="0.5" width="55" height="43" stroke="#ED1C24"/>
<rect x="64.2773" y="0.5" width="5.22222" height="43" stroke="#ED1C24"/>
<path d="M69.6124 1L64.168 4" stroke="#ED1C24"/>
<path d="M69.6124 4L64.168 7" stroke="#ED1C24"/>
<path d="M69.6124 7L64.168 10" stroke="#ED1C24"/>
<path d="M69.6124 10L64.168 13" stroke="#ED1C24"/>
<path d="M69.6124 13L64.168 16" stroke="#ED1C24"/>
<path d="M69.6124 16L64.168 19" stroke="#ED1C24"/>
<path d="M69.6124 19L64.168 22" stroke="#ED1C24"/>
<path d="M69.6124 22L64.168 25" stroke="#ED1C24"/>
<path d="M69.6124 25L64.168 28" stroke="#ED1C24"/>
<path d="M69.6124 28L64.168 31" stroke="#ED1C24"/>
<path d="M69.6124 31L64.168 34" stroke="#ED1C24"/>
<path d="M69.6124 34L64.168 37" stroke="#ED1C24"/>
<path d="M69.6124 37L64.168 40" stroke="#ED1C24"/>
<path d="M69.6124 40L64.168 43" stroke="#ED1C24"/>
<rect x="0.5" y="0.5" width="5.22222" height="43" stroke="#ED1C24"/>
<path d="M5.83507 1L0.390625 4" stroke="#ED1C24"/>
<path d="M5.83507 4L0.390625 7" stroke="#ED1C24"/>
<path d="M5.83507 7L0.390625 10" stroke="#ED1C24"/>
<path d="M5.83507 10L0.390625 13" stroke="#ED1C24"/>
<path d="M5.83507 13L0.390625 16" stroke="#ED1C24"/>
<path d="M5.83507 16L0.390625 19" stroke="#ED1C24"/>
<path d="M5.83507 19L0.390625 22" stroke="#ED1C24"/>
<path d="M5.83507 22L0.390625 25" stroke="#ED1C24"/>
<path d="M5.83507 25L0.390625 28" stroke="#ED1C24"/>
<path d="M5.83507 28L0.390625 31" stroke="#ED1C24"/>
<path d="M5.83507 31L0.390625 34" stroke="#ED1C24"/>
<path d="M5.83507 34L0.390625 37" stroke="#ED1C24"/>
<path d="M5.83507 37L0.390625 40" stroke="#ED1C24"/>
<path d="M5.83507 40L0.390625 43" stroke="#ED1C24"/>
<path d="M13.6634 18.9697V15.0629H20.4697V33H16.096V18.9697H13.6634ZM23.344 23.7857C23.344 20.9682 23.8846 18.7486 24.9657 17.1269C26.0632 15.5051 27.8242 14.6943 30.2486 14.6943C32.6729 14.6943 34.4257 15.5051 35.5069 17.1269C36.6044 18.7486 37.1531 20.9682 37.1531 23.7857C37.1531 26.636 36.6044 28.872 35.5069 30.4937C34.4257 32.1154 32.6729 32.9263 30.2486 32.9263C27.8242 32.9263 26.0632 32.1154 24.9657 30.4937C23.8846 28.872 23.344 26.636 23.344 23.7857ZM33.0251 23.7857C33.0251 22.1312 32.8449 20.8617 32.4846 19.9771C32.1242 19.0762 31.3789 18.6257 30.2486 18.6257C29.1183 18.6257 28.3729 19.0762 28.0126 19.9771C27.6522 20.8617 27.472 22.1312 27.472 23.7857C27.472 24.8996 27.5375 25.8251 27.6686 26.5623C27.7996 27.283 28.0617 27.8728 28.4549 28.3314C28.8644 28.7737 29.4623 28.9949 30.2486 28.9949C31.0349 28.9949 31.6246 28.7737 32.0177 28.3314C32.4272 27.8728 32.6975 27.283 32.8286 26.5623C32.9596 25.8251 33.0251 24.8996 33.0251 23.7857ZM50.3564 33L46.8427 27.7171L43.7467 33H38.9799L44.5084 24.228L38.857 15.7509H43.7467L47.2113 20.96L50.2582 15.7509H55.025L49.5456 24.4491L55.2462 33H50.3564Z" fill="#ED1C24"/>
<path d="M52 3.5C55.5927 3.5 58.5 6.40784 58.5 10C58.5 13.5927 55.5922 16.5 52 16.5C48.4073 16.5 45.5 13.5922 45.5 10C45.5 6.40733 48.4078 3.5 52 3.5ZM52 5.4375C49.4779 5.4375 47.4375 7.47818 47.4375 10C47.4375 12.5221 49.4782 14.5625 52 14.5625C54.5221 14.5625 56.5625 12.5218 56.5625 10C56.5625 7.47786 54.5218 5.4375 52 5.4375ZM53.6357 7.74219C53.9904 7.38778 54.5522 7.36543 54.9326 7.67578L55.0059 7.74219L55.0723 7.81641C55.3825 8.19682 55.3604 8.75762 55.0059 9.1123L51.8613 12.2578C51.5066 12.6123 50.9449 12.6345 50.5645 12.3242L50.4912 12.2578L48.9941 10.7607C48.6157 10.3825 48.6159 9.76894 48.9941 9.39062L49.0674 9.32422C49.4226 9.03409 49.9358 9.03405 50.291 9.32422L50.3643 9.39062L51.1758 10.2021L53.6357 7.74219Z" fill="#ED1C24" stroke="white"/>
</svg>
