<svg width="63" height="63" viewBox="0 0 63 63" fill="none" xmlns="http://www.w3.org/2000/svg">
<path d="M24.4375 38.5616C24.7227 38.8448 25.1055 39.0011 25.5 39.0011C25.5508 39.0011 25.5977 38.9991 25.6484 38.9932C26.0938 38.9503 26.5 38.7061 26.75 38.3331L34.75 26.3331C34.9141 26.087 35 25.7979 35 25.5011V21.5011C35 21.0186 34.7695 20.5655 34.3789 20.2843C33.9844 19.9991 33.4766 19.9288 33.0273 20.0772L21.0273 24.0772C20.4141 24.2823 20 24.8546 20 25.5011V33.5011C20 33.8995 20.1562 34.2803 20.4375 34.5616L24.4375 38.5616ZM23 26.5831L32 23.5831V25.046L25.2656 35.1475L23 32.88V26.5831Z" fill="#ED1C24"/>
<path d="M14.8402 32.8311C14.5863 32.3214 14.0668 32.001 13.5004 32.001H5.50039C4.98086 32.001 4.49648 32.2706 4.22304 32.712C3.94961 33.1553 3.92617 33.7061 4.16054 34.171L12.1605 50.171C12.4144 50.6807 12.934 51.001 13.5004 51.001C14.0668 51.001 14.5863 50.6807 14.8402 50.171L18.8402 42.171C19.0551 41.7491 19.0551 41.253 18.8402 40.8311L14.8402 32.8311ZM13.5004 46.1475L7.92617 35.001H12.5746L15.8246 41.501L13.5004 46.1475Z" fill="#ED1C24"/>
<path d="M9.5 27.001C9.76562 27.001 10.0312 26.9307 10.2734 26.7882L30.2734 14.7882C30.7227 14.5167 31 14.0284 31 13.501V9.50105C31 8.9991 30.75 8.53035 30.332 8.253L18.332 0.253003C17.9766 0.0147218 17.5508 -0.0575438 17.1367 0.0459718L1.13672 4.04597C0.46875 4.21199 0 4.81355 0 5.50105V17.501C0 17.8995 0.15625 18.2803 0.4375 18.5616L8.4375 26.5616C8.73047 26.8507 9.11328 27.001 9.5 27.001ZM11.8352 22.3516L14.6729 11.001H28V12.6514L11.8352 22.3516ZM17.2188 3.11628L24.5459 8.00105H13.7422L6.86133 5.7071L17.2188 3.11628ZM3 7.58235L11.7063 10.4844L8.68628 22.5645L3 16.88V7.58235Z" fill="#ED1C24"/>
<path d="M61.5005 0.0010376H41.5005C40.9341 0.0010376 40.4145 0.32135 40.1606 0.831116L36.1606 8.83112C35.9809 9.18658 35.9497 9.59869 36.0786 9.97565L40.0786 21.9756C40.2856 22.6006 40.8677 23.001 41.5005 23.001C41.6216 23.001 41.7427 22.9874 41.8638 22.9561L57.8638 18.9561C58.2895 18.8506 58.645 18.5635 58.8403 18.171L62.8403 10.171C62.9458 9.96393 63.0005 9.73346 63.0005 9.50104V1.50104C63.0005 0.672913 62.3286 0.0010376 61.5005 0.0010376ZM60.0005 8.00104H50.1216L45.1228 3.00104H60.0005V8.00104ZM39.1216 9.61627L41.9104 4.034L47.5683 9.69196L41.9536 18.1143L39.1216 9.61627ZM56.4692 16.2139L44.9033 19.1038L50.3052 11.001H59.0742L56.4692 16.2139Z" fill="#ED1C24"/>
<path d="M46.1705 36.1592L38.1705 32.1592C37.5846 31.8741 36.8932 31.9835 36.4361 32.4405L24.4361 44.4405C24.3228 44.5538 24.2291 44.6866 24.1588 44.8311L20.1588 52.8311C19.8697 53.4073 19.983 54.1046 20.4361 54.5616L28.4361 62.5616C28.7174 62.8428 29.1002 63.001 29.4986 63.001H45.4986C46.1432 63.001 46.7174 62.587 46.9205 61.9757L50.9205 49.9757C51.026 49.6671 51.026 49.335 50.9205 49.0264L46.9205 37.0264C46.7955 36.6495 46.526 36.337 46.1705 36.1592ZM37.7955 35.3253L44.2721 38.5655L47.6004 48.5526L37.7213 51.8467L27.8541 45.2686L37.7955 35.3253ZM26.0811 47.6922L35.1432 53.7335L29.4977 59.379L23.3228 53.2042L26.0811 47.6922ZM44.4166 60.001H33.1217L38.3111 54.8116L47.1258 51.8734L44.4166 60.001Z" fill="#ED1C24"/>
<path d="M54.8401 24.8311C54.4729 24.087 53.5627 23.7921 52.8284 24.1592L44.8284 28.1592C44.3987 28.3741 44.0979 28.7842 44.0198 29.2608C43.9416 29.7374 44.0979 30.2198 44.4377 30.5616L52.4377 38.5616C52.7307 38.8546 53.1174 39.001 53.5002 39.001C53.8831 39.001 54.2698 38.8546 54.5627 38.5616L58.5627 34.5616C59.0159 34.1046 59.1291 33.4073 58.8401 32.8311L54.8401 24.8311ZM53.5002 35.3799L48.0315 29.9112L52.8284 27.5128L55.676 33.2042L53.5002 35.3799Z" fill="#ED1C24"/>
</svg>
