<svg width="140" height="28" viewBox="0 0 140 28" fill="none" xmlns="http://www.w3.org/2000/svg">
<path d="M11.051 -2.55108e-05C13.067 -2.55108e-05 14.783 0.227974 16.199 0.683974C17.615 1.13997 18.791 1.78797 19.727 2.62797C20.447 3.22797 21.023 3.92397 21.455 4.71597C21.887 5.48397 22.211 6.38397 22.427 7.41597C22.643 8.42397 22.751 9.61197 22.751 10.98V20.448H-0.000999853V10.908C-0.000999853 9.61197 0.0950001 8.45997 0.287 7.45197C0.503 6.44397 0.827 5.54397 1.259 4.75197C1.715 3.95997 2.267 3.26397 2.915 2.66397C3.851 1.79997 4.967 1.13997 6.263 0.683974C7.583 0.227974 9.179 -2.55108e-05 11.051 -2.55108e-05ZM9.071 2.91597C8.159 2.91597 7.343 3.15597 6.623 3.63597C5.927 4.09197 5.351 4.71597 4.895 5.50797C4.535 6.13197 4.247 6.91197 4.031 7.84797C3.839 8.75997 3.743 9.88797 3.743 11.232V18L3.491 17.964C5.051 16.764 6.455 15.504 7.703 14.184C8.951 12.84 9.935 11.484 10.655 10.116C11.375 8.74797 11.735 7.40397 11.735 6.08397C11.735 5.45997 11.639 4.91997 11.447 4.46397C11.279 3.98397 11.003 3.61197 10.619 3.34797C10.235 3.05997 9.719 2.91597 9.071 2.91597ZM15.479 6.55197C15.479 7.89597 15.179 9.21597 14.579 10.512C13.979 11.784 13.127 13.068 12.023 14.364C10.943 15.66 9.659 16.98 8.171 18.324L7.847 17.748C8.519 17.676 9.179 17.628 9.827 17.604C10.499 17.58 11.111 17.568 11.663 17.568H19.007V11.448C19.007 9.71997 18.839 8.30397 18.503 7.19997C18.167 6.07197 17.627 5.15997 16.883 4.46397C16.139 3.76797 15.155 3.23997 13.931 2.87997L14.003 2.62797C14.411 3.13197 14.759 3.68397 15.047 4.28397C15.335 4.88397 15.479 5.63997 15.479 6.55197ZM54.179 0.431973V20.448H27.107V9.28797C27.107 7.46397 27.311 6.02397 27.719 4.96797C28.127 3.88797 28.691 2.99997 29.411 2.30397C30.203 1.53597 31.151 0.959973 32.255 0.575974C33.383 0.191974 34.667 -2.55108e-05 36.107 -2.55108e-05C37.595 -2.55108e-05 38.891 0.191974 39.995 0.575974C41.123 0.935973 42.047 1.48797 42.767 2.23197C43.583 3.02397 44.171 3.98397 44.531 5.11197C44.891 6.21597 45.071 7.53597 45.071 9.07197V12.564H30.851V17.568H50.435V0.431973H54.179ZM36.071 2.87997C34.247 2.87997 32.915 3.38397 32.075 4.39197C31.259 5.37597 30.851 6.86397 30.851 8.85597V9.64797H41.327V8.89197C41.327 6.80397 40.907 5.27997 40.067 4.31997C39.227 3.35997 37.895 2.87997 36.071 2.87997ZM81.2091 20.88C80.1051 20.88 79.0371 20.772 78.0051 20.556C76.9731 20.34 75.9171 19.956 74.8371 19.404C74.6931 19.332 74.5011 19.248 74.2611 19.152C74.0451 19.056 73.8651 18.972 73.7211 18.9C72.3531 17.964 71.2611 16.932 70.4451 15.804C69.6291 14.676 69.0291 13.476 68.6451 12.204C68.2851 10.932 68.1051 9.63597 68.1051 8.31597C68.1051 7.37997 68.2131 6.52797 68.4291 5.75997C68.6451 4.99197 68.9331 4.29597 69.2931 3.67197L69.5811 3.31197C70.0851 2.51997 70.6731 1.88397 71.3451 1.40397C72.0411 0.923974 72.7971 0.575974 73.6131 0.359974C74.4291 0.119974 75.2691 -2.55108e-05 76.1331 -2.55108e-05C78.6291 -2.55108e-05 80.5611 0.743974 81.9291 2.23197C83.3211 3.71997 84.0171 5.80797 84.0171 8.49597C84.0171 10.68 83.5371 12.636 82.5771 14.364C81.6171 16.068 80.3331 17.46 78.7251 18.54C78.5091 18.684 78.3051 18.816 78.1131 18.936C77.9451 19.032 77.7411 19.14 77.5011 19.26C76.4691 19.812 75.3651 20.22 74.1891 20.484C73.0371 20.748 71.8251 20.88 70.5531 20.88C68.5371 20.88 66.7491 20.58 65.1891 19.98C63.6531 19.356 62.3451 18.492 61.2651 17.388C60.1851 16.26 59.3691 14.94 58.8171 13.428C58.2651 11.892 57.9891 10.224 57.9891 8.42397C57.9891 6.71997 58.3131 5.24397 58.9611 3.99597C59.6091 2.74797 60.5451 1.77597 61.7691 1.07997C63.0171 0.359974 64.4931 -2.55108e-05 66.1971 -2.55108e-05C67.6371 -2.55108e-05 68.8851 0.263974 69.9411 0.791973C71.0211 1.29597 71.9091 2.02797 72.6051 2.98797L69.8691 5.14797C69.5091 4.49997 69.0291 3.95997 68.4291 3.52797C67.8531 3.09597 67.1091 2.87997 66.1971 2.87997C65.3331 2.87997 64.5651 3.09597 63.8931 3.52797C63.2211 3.93597 62.6931 4.55997 62.3091 5.39997C61.9491 6.23997 61.7691 7.25997 61.7691 8.45997C61.7691 10.188 62.1171 11.784 62.8131 13.248C63.5091 14.688 64.5291 15.852 65.8731 16.74C67.2171 17.628 68.8611 18.072 70.8051 18.072C71.3571 18.072 71.8971 18.048 72.4251 18C72.9531 17.928 73.4571 17.832 73.9371 17.712C74.2011 17.616 74.4651 17.532 74.7291 17.46C75.0171 17.388 75.2811 17.304 75.5211 17.208C76.3371 16.8 77.0931 16.2 77.7891 15.408C78.5091 14.592 79.0971 13.608 79.5531 12.456C80.0091 11.28 80.2371 9.95997 80.2371 8.49597C80.2371 7.10397 80.0451 5.99997 79.6611 5.18397C79.2771 4.36797 78.7611 3.77997 78.1131 3.41997C77.4891 3.05997 76.8291 2.87997 76.1331 2.87997C75.2691 2.87997 74.5131 3.09597 73.8651 3.52797C73.2411 3.93597 72.7491 4.55997 72.3891 5.39997C72.0531 6.23997 71.8851 7.27197 71.8851 8.49597C71.8851 9.76797 72.0771 10.992 72.4611 12.168C72.8451 13.32 73.3971 14.352 74.1171 15.264C74.8371 16.152 75.6771 16.848 76.6371 17.352C76.8771 17.448 77.0811 17.496 77.2491 17.496C77.4411 17.496 77.6571 17.532 77.8971 17.604C78.3051 17.724 78.7971 17.832 79.3731 17.928C79.9491 18.024 80.5611 18.072 81.2091 18.072C83.0811 18.072 84.6411 17.7 85.8891 16.956C87.1611 16.188 88.1211 15.132 88.7691 13.788C89.4411 12.444 89.7771 10.908 89.7771 9.17997C89.7771 7.83597 89.5611 6.55197 89.1291 5.32797C88.7211 4.07997 88.0971 2.93997 87.2571 1.90797L90.1731 -2.55108e-05C91.3251 1.31997 92.1771 2.75997 92.7291 4.31997C93.2811 5.87997 93.5571 7.47597 93.5571 9.10797C93.5571 10.764 93.3051 12.312 92.8011 13.752C92.3211 15.168 91.5651 16.416 90.5331 17.496C89.5251 18.552 88.2411 19.38 86.6811 19.98C85.1211 20.58 83.2971 20.88 81.2091 20.88ZM112.507 10.368C112.507 11.76 112.363 13.092 112.075 14.364C111.787 15.612 111.307 16.728 110.635 17.712C109.963 18.696 109.075 19.476 107.971 20.052C106.867 20.604 105.475 20.88 103.795 20.88C102.475 20.88 101.335 20.676 100.375 20.268C99.4149 19.86 98.6109 19.332 97.9629 18.684C97.3389 18.012 96.8469 17.292 96.4869 16.524C96.1269 15.732 95.8629 14.964 95.6949 14.22L99.4749 13.536C99.6429 14.16 99.8829 14.82 100.195 15.516C100.507 16.212 100.951 16.8 101.527 17.28C102.103 17.76 102.859 18 103.795 18C104.971 18 105.907 17.676 106.603 17.028C107.323 16.38 107.839 15.492 108.151 14.364C108.487 13.212 108.655 11.892 108.655 10.404C108.655 8.91597 108.487 7.60797 108.151 6.47997C107.839 5.35197 107.335 4.47597 106.639 3.85197C105.943 3.20397 105.043 2.87997 103.939 2.87997C103.051 2.87997 102.307 3.11997 101.707 3.59997C101.131 4.05597 100.675 4.61997 100.339 5.29197C100.003 5.96397 99.7509 6.62397 99.5829 7.27197L95.8389 6.58797C96.0549 5.79597 96.3669 5.01597 96.7749 4.24797C97.1829 3.47997 97.7109 2.77197 98.3589 2.12397C99.0069 1.47597 99.8109 0.959973 100.771 0.575974C101.731 0.191974 102.859 -2.55108e-05 104.155 -2.55108e-05C105.739 -2.55108e-05 107.059 0.287974 108.115 0.863974C109.171 1.41597 110.023 2.18397 110.671 3.16797C111.319 4.12797 111.787 5.23197 112.075 6.47997C112.363 7.70397 112.507 8.99997 112.507 10.368ZM128.432 2.87997C127.112 2.87997 125.912 2.98797 124.832 3.20397C123.776 3.39597 122.84 3.69597 122.024 4.10397C121.208 4.48797 120.524 4.94397 119.972 5.47197C119.444 5.97597 119.06 6.55197 118.82 7.19997C118.796 7.27197 118.796 7.36797 118.82 7.48797C118.868 7.60797 118.88 7.70397 118.856 7.77597C118.784 8.01597 118.724 8.25597 118.676 8.49597C118.652 8.73597 118.64 8.98797 118.64 9.25197C118.64 10.596 118.892 11.64 119.396 12.384C119.924 13.104 120.704 13.464 121.736 13.464C122.72 13.464 123.44 13.188 123.896 12.636C124.352 12.06 124.58 11.376 124.58 10.584C124.58 10.08 124.484 9.63597 124.292 9.25197C124.1 8.84397 123.8 8.51997 123.392 8.27997C123.008 8.03997 122.492 7.91997 121.844 7.91997C120.86 7.91997 120.032 8.17197 119.36 8.67597C118.688 9.15597 118.1 9.67197 117.596 10.224L116.192 8.63997C116.6 8.13597 117.116 7.63197 117.74 7.12797C118.388 6.62397 119.12 6.20397 119.936 5.86797C120.752 5.50797 121.628 5.32797 122.564 5.32797C123.86 5.32797 124.916 5.57997 125.732 6.08397C126.548 6.56397 127.148 7.19997 127.532 7.99197C127.916 8.78397 128.108 9.64797 128.108 10.584C128.108 11.544 127.88 12.456 127.424 13.32C126.992 14.184 126.308 14.88 125.372 15.408C124.436 15.936 123.236 16.2 121.772 16.2C120.524 16.2 119.408 15.924 118.424 15.372C117.464 14.796 116.72 13.98 116.192 12.924C115.664 11.844 115.4 10.56 115.4 9.07197C115.4 7.82397 115.676 6.64797 116.228 5.54397C116.78 4.41597 117.608 3.44397 118.712 2.62797C119.84 1.81197 121.232 1.17597 122.888 0.719974C124.544 0.239974 126.464 -2.55108e-05 128.648 -2.55108e-05C131.024 -2.55108e-05 132.968 0.227974 134.48 0.683974C135.992 1.11597 137.108 1.77597 137.828 2.66397C138.572 3.52797 138.944 4.61997 138.944 5.93997C138.944 6.80397 138.74 7.57197 138.332 8.24397C137.948 8.91597 137.348 9.49197 136.532 9.97197C135.74 10.428 134.732 10.776 133.508 11.016L130.52 10.08V9.03597H130.808C131.576 9.03597 132.224 8.99997 132.752 8.92797C133.28 8.83197 133.736 8.63997 134.12 8.35197C134.504 8.06397 134.768 7.75197 134.912 7.41597C135.08 7.07997 135.164 6.68397 135.164 6.22797C135.164 5.53197 134.948 4.94397 134.516 4.46397C134.108 3.95997 133.412 3.57597 132.428 3.31197C131.444 3.02397 130.112 2.87997 128.432 2.87997ZM139.34 15.12C139.34 15.912 139.196 16.632 138.908 17.28C138.62 17.928 138.224 18.48 137.72 18.936C137.312 19.272 136.844 19.56 136.316 19.8C135.788 20.016 135.116 20.184 134.3 20.304C133.508 20.4 132.488 20.448 131.24 20.448H123.86C122.852 20.448 122.108 20.484 121.628 20.556C121.148 20.628 120.764 20.736 120.476 20.88C120.116 21.048 119.864 21.276 119.72 21.564C119.576 21.828 119.504 22.14 119.504 22.5C119.504 22.836 119.552 23.136 119.648 23.4C119.768 23.688 119.972 23.916 120.26 24.084C120.548 24.3 120.944 24.456 121.448 24.552C121.976 24.672 122.756 24.732 123.788 24.732H138.692V27.684H123.464C122.168 27.684 121.052 27.576 120.116 27.36C119.204 27.168 118.436 26.892 117.812 26.532C117.116 26.1 116.588 25.56 116.228 24.912C115.892 24.264 115.724 23.532 115.724 22.716C115.724 21.852 115.88 21.084 116.192 20.412C116.528 19.716 117.056 19.14 117.776 18.684C118.136 18.444 118.544 18.24 119 18.072C119.48 17.904 120.044 17.784 120.692 17.712C121.34 17.616 122.12 17.568 123.032 17.568H130.88C131.864 17.568 132.668 17.52 133.292 17.424C133.916 17.304 134.396 17.088 134.732 16.776C135.02 16.56 135.224 16.296 135.344 15.984C135.488 15.648 135.56 15.24 135.56 14.76C135.56 14.304 135.476 13.896 135.308 13.536C135.14 13.176 134.864 12.864 134.48 12.6C134.144 12.384 133.724 12.216 133.22 12.096C132.716 11.976 132.02 11.916 131.132 11.916H130.52V9.57597L134.408 9.93597C136.112 10.344 137.36 11.004 138.152 11.916C138.944 12.804 139.34 13.872 139.34 15.12Z" fill="#ED1C24"/>
</svg>
