<svg width="107" height="87" viewBox="0 0 107 87" fill="none" xmlns="http://www.w3.org/2000/svg">
<path opacity="0.2" d="M39.8911 76.0273C52.9764 84.8897 69.2947 87.1171 81.1985 80.4646C90.3875 75.3303 98.8004 66.1254 101.733 55.8514C103.164 50.8344 103.079 45.4641 100.806 40.7059C99.1414 37.2206 96.6683 34.1559 94.0676 31.3339C91.6818 28.7438 89.5551 25.8113 86.8335 23.538C81.079 18.7287 73.6905 17.7134 67.0485 19.0698C62.5977 19.9785 50.9879 24.1785 50.5207 30.5802C49.1619 49.1881 48.6638 45.2227 33.1296 53.4811C23.9406 58.5345 33.7485 71.8678 39.8911 76.0273Z" fill="#ED1C24"/>
<path d="M52.1556 13.2276H52.2024C53.0966 13.2022 53.8021 12.4552 53.7767 11.561L53.4916 1.57463C53.4661 0.67907 52.7058 -0.0183722 51.8249 0.000368986C50.9307 0.0258035 50.2252 0.771437 50.2507 1.667L50.5371 11.6534C50.5626 12.5329 51.2828 13.2276 52.1569 13.2276H52.1556Z" fill="#343E3F"/>
<path d="M68.6393 15.5824C68.8575 15.6815 69.0851 15.7284 69.31 15.7284C69.9258 15.7284 70.5148 15.375 70.7865 14.7779L74.7222 6.12616C75.093 5.31092 74.7329 4.34977 73.9176 3.97896C73.1037 3.60815 72.1412 3.96825 71.7704 4.78349L67.8334 13.4352C67.4626 14.2505 67.8227 15.2116 68.638 15.5824H68.6393Z" fill="#343E3F"/>
<path d="M35.0023 15.5824C34.7841 15.6815 34.5565 15.7284 34.3316 15.7284C33.7158 15.7284 33.1268 15.375 32.855 14.7779L28.9194 6.12616C28.5486 5.31092 28.9087 4.34977 29.7239 3.97896C30.5378 3.60815 31.5003 3.96825 31.8711 4.78349L35.8081 13.4352C36.1789 14.2505 35.8188 15.2116 35.0036 15.5824H35.0023Z" fill="#343E3F"/>
<path d="M105.121 44.8219C104.178 43.7216 81.5309 18.0742 53.0082 18.0742C24.4854 18.0742 1.83797 43.7229 0.895554 44.8219L0 45.8433L0.895554 46.8808C1.7282 47.8393 18.9996 67.3904 42.2748 72.4184H50.1488V68.8348C49.7874 68.7879 49.4259 68.7411 49.0645 68.6782C44.177 63.6649 36.2401 54.3144 36.2401 48.3426C36.2401 39.0858 43.7527 31.5732 53.0082 31.5732C62.2636 31.5732 69.7762 39.0858 69.7762 48.3426C69.7762 54.3144 61.8393 63.6649 56.9518 68.6782C56.7792 68.709 56.6065 68.7411 56.4338 68.7571V72.4184H63.7415C87.0167 67.389 104.288 47.8393 105.121 46.8808L106.016 45.8433L105.121 44.8219ZM4.21007 45.8433C7.88736 41.9773 21.8268 28.3364 39.6484 23.1973C31.9002 27.7862 26.6674 36.2104 26.6674 45.8433C26.6674 55.4763 31.9002 63.9166 39.6484 68.5055C21.8268 63.3664 7.88736 49.7254 4.21007 45.8433ZM63.0026 66.7451C67.5286 61.5431 72.9194 54.1417 72.9194 48.3426C72.9194 37.3576 63.9932 28.4301 53.0082 28.4301C42.0231 28.4301 33.097 37.3562 33.097 48.3426C33.097 54.1417 38.4877 61.5431 43.0137 66.7451C35.2187 63.0049 29.8119 55.0533 29.8119 45.8433C29.8119 33.0658 40.2159 22.6631 53.0082 22.6631C65.8004 22.6631 76.2044 33.0672 76.2044 45.8433C76.2044 55.0533 70.7976 63.0049 63.0026 66.7451ZM66.3653 68.5055C74.1134 63.9166 79.3462 55.4924 79.3462 45.8433C79.3462 36.1943 74.1282 27.7862 66.3653 23.1973C84.1868 28.3364 98.1263 41.9773 101.804 45.8433C98.1263 49.7254 84.1868 63.3664 66.3653 68.5055Z" fill="#343E3F"/>
<path d="M64.3427 73.9819H54.8596V50.8954L60.4646 45.2905C61.079 44.676 61.079 43.6814 60.4646 43.0683C59.8502 42.4538 58.8555 42.4538 58.2424 43.0683L53.4005 47.9089L48.3323 42.8407C47.7179 42.2263 46.7233 42.2263 46.1102 42.8407C45.4971 43.4552 45.4957 44.4498 46.1102 45.0629L51.7151 50.6678V73.9819H42.2669C41.3994 73.9819 40.6953 74.6847 40.6953 75.5535C40.6953 76.4223 41.3994 77.1251 42.2669 77.1251H64.3413C65.2088 77.1251 65.9129 76.4223 65.9129 75.5535C65.9129 74.6847 65.2088 73.9819 64.3413 73.9819H64.3427Z" fill="#343E3F"/>
<path d="M60.6638 78.6523H45.9466C45.0791 78.6523 44.375 79.3551 44.375 80.2239C44.375 81.0927 45.0791 81.7955 45.9466 81.7955H60.6638C61.5312 81.7955 62.2354 81.0927 62.2354 80.2239C62.2354 79.3551 61.5312 78.6523 60.6638 78.6523Z" fill="#343E3F"/>
<path d="M57.0785 83.3232H49.5325C48.6651 83.3232 47.9609 84.026 47.9609 84.8948C47.9609 85.7636 48.6651 86.4664 49.5325 86.4664H57.0785C57.946 86.4664 58.6501 85.7636 58.6501 84.8948C58.6501 84.026 57.946 83.3232 57.0785 83.3232Z" fill="#343E3F"/>
</svg>
